<svg width="151" height="21" viewBox="0 0 151 21" fill="none" xmlns="http://www.w3.org/2000/svg">
<path d="M47.1818 5.24316C51.0522 5.24316 53.7972 8.5097 53.7972 12.8742V13.5605H42.5153C42.5153 16.278 44.6015 18.5564 47.1818 18.5564C49.2954 18.5564 50.613 17.8701 51.4091 16.6898L53.3031 18.1446C52.1228 19.8465 49.9817 20.9994 47.1818 20.9994C42.8722 20.9994 40.0723 17.3486 40.0723 13.1487C40.0723 8.75675 42.8447 5.24316 47.1818 5.24316ZM47.1818 7.63131C44.876 7.63131 43.1192 9.08615 42.5977 11.337H51.3542C50.8052 9.08615 49.1856 7.63131 47.1818 7.63131Z" fill="#5418AD"/>
<path d="M34.8401 8.23521C35.7459 6.64311 37.4753 5.24316 40.0006 5.24316V7.96071C37.091 7.96071 35.4165 9.8822 34.8401 11.5017V20.5877H32.4794V5.62746H34.6479L34.8401 8.23521Z" fill="#5418AD"/>
<path d="M29.1741 20.5877H26.9781L26.786 18.1995C25.935 19.7642 23.7665 20.972 21.7626 20.972C17.4256 20.972 14.2963 17.678 14.2963 13.1213C14.2963 8.64695 17.4256 5.24316 21.7626 5.24316C23.7665 5.24316 25.9625 6.47841 26.786 8.01561L26.9781 5.62746H29.1741V20.5877ZM26.8409 13.1213C26.8409 10.1293 24.6449 7.63131 21.8175 7.63131C18.8255 7.63131 16.7942 10.1293 16.7942 13.1213C16.7942 16.1133 18.8255 18.5289 21.8175 18.5289C24.8096 18.5289 26.8409 16.1133 26.8409 13.1213Z" fill="#5418AD"/>
<path d="M2.41559 13.1487C2.41559 16.2231 4.88609 18.5564 7.79578 18.5564C9.49767 18.5564 10.8427 17.8427 11.8858 16.4702L13.6701 17.8427C12.4348 19.7642 10.4035 20.9994 7.79578 20.9994C3.43124 20.9994 0 17.5133 0 13.1487C0 8.75675 3.40379 5.24316 7.74088 5.24316C10.2114 5.24316 12.1878 6.36861 13.423 8.1254L11.6113 9.4979C10.5133 8.2352 9.22317 7.63131 7.74088 7.63131C4.77629 7.63131 2.41559 10.1841 2.41559 13.1487Z" fill="#5418AD"/>
<path d="M143.603 5.24414C147.473 5.24414 150.218 8.51068 150.218 12.8752V13.5615H138.936C138.936 16.279 141.022 18.5573 143.603 18.5573C145.716 18.5573 147.034 17.8711 147.83 16.6908L149.724 18.1456C148.544 19.8475 146.402 21.0004 143.603 21.0004C139.293 21.0004 136.493 17.3496 136.493 13.1497C136.493 8.75773 139.265 5.24414 143.603 5.24414ZM143.603 7.63228C141.297 7.63228 139.54 9.08713 139.018 11.338H147.775C147.226 9.08713 145.606 7.63228 143.603 7.63228Z" fill="#5418AD"/>
<path d="M124.612 13.1497C124.612 16.2241 127.083 18.5573 129.993 18.5573C131.694 18.5573 133.039 17.8437 134.083 16.4712L135.867 17.8437C134.632 19.7651 132.6 21.0004 129.993 21.0004C125.628 21.0004 122.197 17.5143 122.197 13.1497C122.197 8.75773 125.601 5.24414 129.938 5.24414C132.408 5.24414 134.385 6.36959 135.62 8.12638L133.808 9.49888C132.71 8.23618 131.42 7.63228 129.938 7.63228C126.973 7.63228 124.612 10.1851 124.612 13.1497Z" fill="#5418AD"/>
<path d="M120.099 20.5886H117.903L117.711 18.2005C116.86 19.7651 114.692 20.9729 112.688 20.9729C108.351 20.9729 105.221 17.679 105.221 13.1223C105.221 8.64793 108.351 5.24414 112.688 5.24414C114.692 5.24414 116.888 6.47939 117.711 8.01658L117.903 5.62844H120.099V20.5886ZM117.766 13.1223C117.766 10.1302 115.57 7.63228 112.743 7.63228C109.751 7.63228 107.719 10.1302 107.719 13.1223C107.719 16.1143 109.751 18.5299 112.743 18.5299C115.735 18.5299 117.766 16.1143 117.766 13.1223Z" fill="#5418AD"/>
<path d="M102.968 20.5874H100.58V0H102.968V20.5874Z" fill="#5418AD"/>
<path d="M82.7419 13.1223C82.7419 8.78518 86.2006 5.24414 90.5377 5.24414C94.8748 5.24414 98.3609 8.78518 98.3609 13.1223C98.3609 17.4594 94.8748 20.9729 90.5377 20.9729C86.2006 20.9729 82.7419 17.4594 82.7419 13.1223ZM85.185 13.1223C85.185 16.1143 87.5457 18.5299 90.5377 18.5299C93.5298 18.5299 95.9179 16.1143 95.9179 13.1223C95.9179 10.1302 93.5298 7.63228 90.5377 7.63228C87.5457 7.63228 85.185 10.1302 85.185 13.1223Z" fill="#5418AD"/>
<path d="M76.1831 7.49503C74.8655 7.49503 73.4106 8.01658 73.4106 9.22438C73.4106 10.2949 74.1518 10.789 75.8811 11.3106C79.1477 12.2713 82.0848 13.3693 82.0848 16.4986C82.0848 18.9417 79.9437 20.9729 76.8693 20.9729C74.4263 20.9729 71.9558 19.6553 70.6382 17.5966L72.4499 16.2241C73.1636 17.2123 74.838 18.6123 76.8968 18.6123C78.2967 18.6123 79.6692 17.8437 79.6692 16.4986C79.6692 15.0712 77.8301 14.3575 75.7164 13.7536C71.9009 12.6556 71.0225 11.1184 70.995 9.19693C70.9676 6.89114 73.191 5.24414 76.1831 5.24414C77.8026 5.24414 79.8614 5.60099 81.5358 7.65973L79.6967 9.03223C78.6261 7.87933 77.2262 7.49503 76.1831 7.49503Z" fill="#5418AD"/>
<path d="M56.1914 15.5751C56.1914 15.5751 57.8893 12.9761 60.7604 11.1752C62.6658 10.1183 66.6446 8.91414 68.8746 9.16981C69.9653 9.2936 70.6595 6.81494 69.7776 6.71629C67.1787 6.41846 62.474 7.84994 60.2576 9.11899C58.0412 10.388 56.3255 12.2332 55.0724 14.4964C54.8374 14.9239 54.388 15.9139 54.8278 16.3477C55.2981 16.8026 56.1914 15.5751 56.1914 15.5751Z" fill="#5418AD"/>
</svg>
